<svg xmlns="http://www.w3.org/2000/svg" width="512" height="512"><path d="M256.053 133.474c-67.82 0-122.526 54.705-122.526 122.526s54.705 122.526 122.526 122.526S378.58 323.82 378.58 256s-54.705-122.526-122.526-122.526zm0 202.184c-43.828 0-79.658-35.724-79.658-79.658s35.724-79.658 79.658-79.658 79.658 35.724 79.658 79.658-35.83 79.658-79.658 79.658zM412.17 128.462c0 15.89-12.797 28.579-28.579 28.579-15.889 0-28.579-12.797-28.579-28.579s12.797-28.578 28.58-28.578c15.781 0 28.578 12.796 28.578 28.578zm81.15 29.006c-1.812-38.283-10.557-72.194-38.602-100.133-27.939-27.938-61.85-36.683-100.132-38.602-39.456-2.24-157.716-2.24-197.172 0-38.176 1.813-72.086 10.557-100.132 38.496S20.6 119.079 18.68 157.36c-2.24 39.456-2.24 157.716 0 197.172 1.812 38.282 10.557 72.193 38.602 100.132 28.046 27.938 61.85 36.683 100.132 38.602 39.456 2.24 157.716 2.24 197.172 0 38.282-1.813 72.193-10.557 100.132-38.602 27.939-27.94 36.683-61.85 38.602-100.132 2.24-39.456 2.24-157.61 0-197.066zm-50.972 239.4c-8.318 20.9-24.42 37.002-45.427 45.427-31.458 12.476-106.104 9.597-140.868 9.597s-109.516 2.773-140.867-9.597c-20.9-8.318-37.003-24.42-45.427-45.428C57.282 365.41 60.16 290.764 60.16 256s-2.77-109.516 9.6-140.867c8.317-20.901 24.42-37.003 45.427-45.428 31.458-12.476 106.104-9.597 140.867-9.597s109.516-2.773 140.868 9.597c20.9 8.318 37.003 24.42 45.427 45.428 12.476 31.457 9.597 106.103 9.597 140.867s2.88 109.516-9.597 140.867z" fill="#fff"/></svg>