<svg xmlns="http://www.w3.org/2000/svg" width="512" height="512"><path fill="#FFF" d="M133.36 479.551H40.77V181.38h92.592v298.171zM87.016 140.708c-29.607 0-53.623-24.524-53.623-54.132 0-29.615 24.008-53.622 53.623-53.622s53.622 24.007 53.622 53.622c0 29.608-24.025 54.132-53.622 54.132zM479.9 479.55h-92.392V334.403c0-34.592-.698-78.953-48.14-78.953-48.14 0-55.517 37.582-55.517 76.462v147.64h-92.49V181.38h88.802v40.674h1.296c12.362-23.427 42.557-48.15 87.607-48.15 93.707 0 110.934 61.708 110.934 141.858v163.79h-.1z"/></svg>