<svg xmlns="http://www.w3.org/2000/svg" width="512" height="512"><path fill="#FFF" d="M465 213.044a196.05 196.05 0 0 1-114.582-36.632v166.8c-.03 83.787-67.978 151.685-151.765 151.654C114.867 494.836 46.97 426.888 47 343.1c.03-83.786 67.978-151.684 151.765-151.653 6.95.003 13.891.483 20.775 1.437v83.895c-36.69-11.541-75.79 8.847-87.33 45.538s8.846 75.79 45.537 87.33 75.79-8.846 87.331-45.537a69.643 69.643 0 0 0 3.209-20.898V17.134h82.131a113.093 113.093 0 0 0 1.736 20.691 114.032 114.032 0 0 0 50.314 74.87A113.331 113.331 0 0 0 465 131.492v81.552z"/></svg>