<svg height="512" width="512" xmlns="http://www.w3.org/2000/svg"><path d="m224.731 206.877c-1.92 3.52-26.881 47.363-74.777 131.741-5.227 8.854-11.52 13.334-18.881 13.334h-69.444c-8.214 0-12.907-8-9.067-15.36l73.604-129.395c.213 0 .213-.106 0-.32l-46.83-80.644c-4.586-8.32.32-15.041 9.068-15.041h69.444c7.787 0 14.187 4.374 19.2 13.014zm234.573-174.836-153.608 269.882v.32l97.712 177.716c4.16 7.574.213 15.041-9.067 15.041h-69.55c-8.108 0-14.508-4.267-19.202-13.014l-98.565-179.743c3.52-6.187 54.936-96.86 154.462-272.229 4.907-8.64 11.094-13.014 18.667-13.014h70.084c8.534 0 13.121 7.147 9.067 15.04z" fill="#fff"/></svg>