<svg xmlns="http://www.w3.org/2000/svg" width="512" height="512"><path fill="#FFF" d="M480.22 142.956c-5.382-20.267-21.24-36.228-41.375-41.644C402.348 91.469 256 91.469 256 91.469s-146.347 0-182.845 9.843c-20.135 5.417-35.993 21.378-41.376 41.644C22 179.69 22 256.332 22 256.332s0 76.643 9.78 113.377c5.382 20.266 21.24 35.563 41.375 40.98C109.653 420.53 256 420.53 256 420.53s146.347 0 182.845-9.843c20.135-5.416 35.993-20.713 41.376-40.98C490 332.976 490 256.333 490 256.333s0-76.642-9.78-113.376zM208.137 325.918V186.747l122.318 69.587-122.318 69.584z"/></svg>